<svg width="20" height="30" viewBox="0 0 20 30" fill="none" xmlns="http://www.w3.org/2000/svg">
<path fill-rule="evenodd" clip-rule="evenodd" d="M3.33333 0H16.6667C17.5507 0 18.3986 0.364697 19.0237 1.01386C19.6488 1.66303 20 2.54348 20 3.46154V30L10 20.7692L0 30V3.46154C0 2.54348 0.35119 1.66303 0.976311 1.01386C1.60143 0.364697 2.44928 0 3.33333 0ZM10.5 6.20193C10.5 5.92579 10.2761 5.70193 10 5.70193C9.72386 5.70193 9.5 5.92579 9.5 6.20193V10.8942H5C4.72386 10.8942 4.5 11.1181 4.5 11.3942C4.5 11.6704 4.72386 11.8942 5 11.8942H9.5V16.5866C9.5 16.8627 9.72386 17.0866 10 17.0866C10.2761 17.0866 10.5 16.8627 10.5 16.5866V11.8942H15C15.2761 11.8942 15.5 11.6704 15.5 11.3942C15.5 11.1181 15.2761 10.8942 15 10.8942H10.5V6.20193Z" fill="white"/>
</svg>
