<svg width="20" height="30" viewBox="0 0 20 30" fill="none" xmlns="http://www.w3.org/2000/svg">
<path fill-rule="evenodd" clip-rule="evenodd" d="M3.33333 0H16.6667C17.5507 0 18.3986 0.364697 19.0237 1.01386C19.6488 1.66303 20 2.54348 20 3.46154V30L10 20.7692L0 30V3.46154C0 2.54348 0.35119 1.66303 0.976311 1.01386C1.60143 0.364697 2.44928 0 3.33333 0ZM15 10.8943L8.125 10.8942L5.85937 10.8942L5.22461 10.8942L5.05737 10.8943H5.01449H5.00364H5.00091H5.00023H5.00005L5 11.3943L5 10.8943C4.72386 10.8943 4.5 11.1181 4.5 11.3943C4.5 11.6704 4.72386 11.8943 5 11.8943L5 11.3943L5.00006 11.8943H5.00023H5.00092H5.00365H5.0145H5.05738L5.22461 11.8942L5.85938 11.8942L8.125 11.8942L15 11.8943C15.2761 11.8943 15.5 11.6704 15.5 11.3943C15.5 11.1181 15.2761 10.8943 15 10.8943Z" fill="white"/>
</svg>
